HIERARCHY
ROOT Hips
{
 OFFSET 0.000000 0.000000 0.000000
 CHANNELS 6 Xposition Yposition Zposition Yrotation Xrotation Zrotation
 JOINT Chest
 {
  OFFSET 0.000000 14.067100 -0.020500
  CHANNELS 3 Yrotation Xrotation Zrotation
  JOINT Chest2
  {
   OFFSET 0.000000 9.717300 0.041800
   CHANNELS 3 Yrotation Xrotation Zrotation
   JOINT Chest3
   {
    OFFSET 0.000000 9.672600 0.000000
    CHANNELS 3 Yrotation Xrotation Zrotation
    JOINT Chest4
    {
     OFFSET 0.000000 9.662700 0.000000
     CHANNELS 3 Yrotation Xrotation Zrotation
     JOINT Neck
     {
      OFFSET 0.000000 14.815200 0.000000
      CHANNELS 3 Yrotation Xrotation Zrotation
      JOINT Head
      {
       OFFSET 0.000000 9.056800 0.088400
       CHANNELS 3 Yrotation Xrotation Zrotation
       End Site
       {
        OFFSET 0.000000 17.018200 0.046700
       }
      }
     }
     JOINT RightCollar
     {
      OFFSET -3.269500 9.872600 0.000000
      CHANNELS 3 Yrotation Xrotation Zrotation
      JOINT RightShoulder
      {
       OFFSET -15.850600 0.000000 0.000000
       CHANNELS 3 Yrotation Xrotation Zrotation
       JOINT RightElbow
       {
        OFFSET 0.000000 -29.117400 0.000000
        CHANNELS 3 Yrotation Xrotation Zrotation
        JOINT RightWrist
        {
         OFFSET 0.000000 -23.969300 0.014600
         CHANNELS 3 Yrotation Xrotation Zrotation
         End Site
         {
          OFFSET 0.000000 -18.039300 0.000000
         }
        }
       }
      }
     }
     JOINT LeftCollar
     {
      OFFSET 3.269500 9.872600 0.000000
      CHANNELS 3 Yrotation Xrotation Zrotation
      JOINT LeftShoulder
      {
       OFFSET 15.850600 0.000000 0.000000
       CHANNELS 3 Yrotation Xrotation Zrotation
       JOINT LeftElbow
       {
        OFFSET 0.000000 -29.117400 0.000000
        CHANNELS 3 Yrotation Xrotation Zrotation
        JOINT LeftWrist
        {
         OFFSET 0.000000 -23.969300 0.014600
         CHANNELS 3 Yrotation Xrotation Zrotation
         End Site
         {
          OFFSET 0.000000 -18.039300 0.000000
         }
        }
       }
      }
     }
    }
   }
  }
 }
 JOINT RightHip
 {
  OFFSET -11.600400 0.101300 0.010200
  CHANNELS 3 Yrotation Xrotation Zrotation
  JOINT RightKnee
  {
   OFFSET 0.000000 -45.913300 -0.001400
   CHANNELS 3 Yrotation Xrotation Zrotation
   JOINT RightAnkle
   {
    OFFSET 0.000000 -46.966900 0.018600
    CHANNELS 3 Yrotation Xrotation Zrotation
    JOINT RightToe
    {
     OFFSET 0.000000 -10.064300 17.850900
     CHANNELS 3 Yrotation Xrotation Zrotation
     End Site
     {
      OFFSET 0.000000 -1.607600 6.976100
     }
    }
   }
  }
 }
 JOINT LeftHip
 {
  OFFSET 11.600400 0.101300 0.010200
  CHANNELS 3 Yrotation Xrotation Zrotation
  JOINT LeftKnee
  {
   OFFSET 0.000000 -45.913300 -0.001400
   CHANNELS 3 Yrotation Xrotation Zrotation
   JOINT LeftAnkle
   {
    OFFSET 0.000000 -46.966900 0.018600
    CHANNELS 3 Yrotation Xrotation Zrotation
    JOINT LeftToe
    {
     OFFSET 0.000000 -10.064300 17.850900
     CHANNELS 3 Yrotation Xrotation Zrotation
     End Site
     {
      OFFSET 0.000000 -1.607600 6.976100
     }
    }
   }
  }
 }
}
MOTION
Frames: 15
Frame Time: 0.008333
0.000000 102.636000 0.000000 0.000000 -5.767877 0.000000 0.000000 11.653817 0.000000 0.000000 -5.885947 0.000000 0.000000 -0.000000 0.000000 0.000000 -0.000000 0.000000 0.000000 12.528835 0.000000 0.000000 0.711642 0.000000 0.000000 -0.000000 0.000000 0.000000 0.000000 -90.000000 0.000000 -2.309062 0.000000 0.000000 2.309062 0.000000 0.000000 -0.000000 0.000000 0.000000 -0.000000 90.000000 0.000000 -2.309062 0.000000 0.000000 2.309062 0.000000 0.000000 8.520406 0.000000 0.000000 1.905762 0.000000 -0.000000 -4.658285 0.000000 0.000000 -0.000000 0.000000 0.000000 8.520406 0.000000 0.000000 1.905762 0.000000 -0.000000 -4.658285 0.000000 0.000000 -0.000000 0.000000
-277.749392 61.929354 -11.351556 173.324477 -29.146998 -1.106734 -1.248901 13.335693 1.937290 -0.700773 7.602786 1.474430 -0.847056 9.506259 1.832300 -0.700738 7.602857 1.474404 -0.592883 18.697778 -4.769751 0.426960 -0.981600 -8.555216 7.937810 3.849064 -4.836632 -2.988411 -20.210502 -9.379220 22.133947 -58.741358 -10.656903 6.332270 1.220066 -36.973400 -1.559997 2.054862 -6.174565 6.796496 -27.526058 -2.451046 -53.672557 -38.879649 33.962710 -4.770599 11.054654 38.566776 19.143350 -53.876427 -25.889112 -103.460418 66.186777 -91.926982 4.970245 -3.894612 0.026118 0.222720 -0.622302 0.127066 -1.376118 -55.898373 10.827780 97.619852 82.335492 96.457298 -6.637002 -8.866752 0.693572 0.233256 0.512301 0.140094
-277.746362 61.928502 -11.349193 173.321890 -29.144266 -1.109249 -1.230991 13.337547 1.951765 -0.706986 7.603493 1.473189 -0.847314 9.514113 1.836075 -0.705577 7.600691 1.475550 -0.586792 18.709719 -4.770587 0.424197 -0.982834 -8.557781 7.930961 3.853230 -4.839326 -2.984237 -20.222726 -9.386419 22.122617 -58.752477 -10.655525 6.335758 1.215953 -36.974129 -1.557819 2.054525 -6.180348 6.796886 -27.516773 -2.443011 -53.691051 -38.908916 33.981392 -4.769046 11.060961 38.567231 19.140884 -53.880916 -25.884913 -103.455084 66.183175 -91.920392 4.973533 -3.892592 0.026522 0.220749 -0.626938 0.127678 -1.363696 -55.906060 10.829863 97.641923 82.338394 96.484303 -6.644977 -8.863547 0.696419 0.235660 0.508989 0.141769
-277.744763 61.928173 -11.348291 173.318632 -29.146062 -1.108337 -1.223936 13.340237 1.955209 -0.707013 7.607692 1.474868 -0.849163 9.513401 1.834460 -0.690961 7.617262 1.478709 -0.597536 18.699194 -4.771830 0.416461 -0.984198 -8.554360 7.916286 3.868855 -4.833232 -2.993327 -20.244329 -9.400597 22.120033 -58.777197 -10.652279 6.338201 1.216000 -36.974611 -1.572039 2.044760 -6.180884 6.796807 -27.520328 -2.440895 -53.695158 -38.921817 33.992348 -4.771540 11.063891 38.568814 19.141868 -53.880169 -25.884072 -103.454287 66.185017 -91.919660 4.974797 -3.891352 0.026504 0.218065 -0.627119 0.126543 -1.355381 -55.907098 10.832214 97.669946 82.338637 96.511524 -6.653749 -8.862140 0.701994 0.235017 0.505757 0.140650
-277.744112 61.928207 -11.348451 173.316251 -29.150204 -1.107437 -1.218249 13.344917 1.956324 -0.697825 7.614776 1.476745 -0.849084 9.513546 1.838265 -0.699279 7.611511 1.477669 -0.598741 18.707656 -4.773545 0.410698 -0.987431 -8.549649 7.916539 3.886395 -4.829845 -2.998816 -20.262686 -9.404507 22.119024 -58.781947 -10.651215 6.329976 1.212312 -36.975324 -1.573735 2.076614 -6.175839 6.797913 -27.544602 -2.447715 -53.702797 -38.931924 34.005378 -4.771865 11.064900 38.567101 19.140908 -53.876831 -25.882719 -103.455443 66.187234 -91.921123 4.978144 -3.889545 0.025625 0.215882 -0.628305 0.125706 -1.346097 -55.904047 10.830054 97.680834 82.339300 96.524358 -6.658995 -8.862212 0.704493 0.239891 0.503625 0.137615
-277.744189 61.928610 -11.349555 173.313650 -29.156051 -1.106543 -1.213172 13.351349 1.956016 -0.696693 7.617971 1.475881 -0.845519 9.516634 1.838230 -0.697765 7.614844 1.476678 -0.606127 18.708181 -4.769920 0.411151 -0.995883 -8.546799 7.912425 3.898780 -4.822367 -3.009573 -20.280131 -9.408174 22.101298 -58.798536 -10.633853 6.330299 1.209692 -36.976337 -1.577810 2.090685 -6.165268 6.801283 -27.556423 -2.451241 -53.714132 -38.947857 34.021854 -4.774613 11.067427 38.562890 19.135377 -53.869995 -25.878013 -103.452500 66.188462 -91.918470 4.982555 -3.891663 0.029296 0.218368 -0.626859 0.120185 -1.334182 -55.899237 10.821898 97.684778 82.335295 96.532031 -6.656117 -8.861795 0.704925 0.237855 0.501782 0.136829
-277.745313 61.929373 -11.351522 173.320709 -29.162869 -1.108211 -1.217014 13.357674 1.953948 -0.697766 7.620269 1.475271 -0.842241 9.523962 1.836288 -0.696400 7.617799 1.476178 -0.614047 18.704530 -4.766987 0.403369 -0.992861 -8.537768 7.908947 3.898871 -4.817130 -3.016392 -20.272165 -9.418602 22.095860 -58.828689 -10.629176 6.326240 1.205793 -36.980972 -1.579102 2.113204 -6.153872 6.807736 -27.578397 -2.455502 -53.724218 -38.969711 34.035626 -4.784497 11.067560 38.561787 19.122179 -53.863155 -25.873720 -103.460809 66.186187 -91.927735 4.984683 -3.897222 0.028286 0.215293 -0.625148 0.121529 -1.329822 -55.893517 10.811103 97.686204 82.340588 96.535631 -6.643094 -8.858201 0.705221 0.232155 0.499102 0.136607
-277.745533 61.930548 -11.354017 173.327161 -29.170516 -1.114312 -1.218263 13.364499 1.957875 -0.700135 7.622058 1.473580 -0.841373 9.529049 1.832426 -0.696325 7.621127 1.474443 -0.617898 18.700918 -4.760765 0.392644 -0.991113 -8.530118 7.909587 3.902467 -4.808371 -3.015916 -20.278244 -9.424637 22.051823 -58.859905 -10.602731 6.345984 1.213023 -36.975812 -1.576096 2.135165 -6.143544 6.815046 -27.597544 -2.454813 -53.734477 -38.989957 34.042406 -4.789701 11.058394 38.569655 19.090339 -53.855225 -25.844358 -103.444846 66.182206 -91.916946 4.972575 -3.908092 0.026482 0.228698 -0.617556 0.122677 -1.328989 -55.885699 10.810101 97.681776 82.343536 96.533819 -6.642373 -8.858629 0.708411 0.235407 0.499961 0.135485
-277.745138 61.931589 -11.356071 173.329563 -29.174485 -1.121517 -1.214740 13.368514 1.963763 -0.695936 7.626540 1.474259 -0.840795 9.535724 1.832318 -0.695966 7.626515 1.474269 -0.630651 18.687260 -4.756790 0.354297 -1.004139 -8.519768 7.902681 3.953297 -4.805236 -3.018458 -20.337879 -9.426397 22.034491 -58.876818 -10.595467 6.348038 1.209236 -36.978279 -1.577794 2.150766 -6.137537 6.823105 -27.615977 -2.451438 -53.747745 -39.013427 34.050441 -4.788306 11.046939 38.577278 19.072587 -53.851737 -25.824084 -103.440924 66.180864 -91.911605 4.966956 -3.911068 0.019808 0.236415 -0.616671 0.127590 -1.326869 -55.881191 10.813382 97.678802 82.348719 96.533626 -6.635178 -8.862290 0.709853 0.226109 0.503430 0.136109
-277.745054 61.933105 -11.358895 173.334951 -29.179797 -1.128294 -1.215627 13.374236 1.966089 -0.696329 7.629304 1.474116 -0.841212 9.539713 1.833330 -0.696370 7.629697 1.475112 -0.640160 18.677460 -4.755543 0.336976 -1.022958 -8.514874 7.904333 3.982414 -4.806871 -3.020337 -20.324681 -9.448590 22.011792 -58.935538 -10.584805 6.341759 1.198645 -36.986379 -1.571145 2.173555 -6.134256 6.834237 -27.629359 -2.444823 -53.770563 -39.052031 34.071471 -4.794088 11.054974 38.563441 19.053717 -53.844317 -25.810510 -103.437210 66.182759 -91.905603 4.967928 -3.912437 0.018525 0.240759 -0.615541 0.129664 -1.329883 -55.875417 10.818700 97.693840 82.353504 96.551665 -6.643539 -8.866353 0.713598 0.224100 0.505507 0.133594
-277.745012 61.935650 -11.363537 173.336399 -29.191657 -1.131424 -1.214659 13.382961 1.965330 -0.697763 7.632790 1.475106 -0.843015 9.544143 1.834497 -0.696424 7.632769 1.475630 -0.643200 18.669084 -4.755444 0.316184 -1.052572 -8.508694 7.913531 4.016914 -4.812942 -3.031621 -20.341981 -9.451224 21.989711 -58.967818 -10.568583 6.338331 1.188996 -36.997178 -1.565140 2.182268 -6.132888 6.856242 -27.617854 -2.430475 -53.793801 -39.103931 34.087203 -4.796501 11.046430 38.557218 19.038220 -53.829270 -25.798637 -103.440946 66.184738 -91.906487 4.974129 -3.918754 0.020101 0.243165 -0.614725 0.127914 -1.331370 -55.863075 10.823181 97.745249 82.363064 96.600277 -6.635498 -8.870559 0.721736 0.223437 0.503972 0.128893
-277.744896 61.938147 -11.367991 173.338362 -29.200846 -1.134193 -1.214884 13.383736 1.966188 -0.700831 7.636455 1.476672 -0.846853 9.548215 1.835207 -0.692898 7.636240 1.473194 -0.648601 18.664848 -4.754881 0.298461 -1.097641 -8.505536 7.926969 4.029380 -4.822255 -3.045655 -20.313875 -9.456737 21.957788 -59.026622 -10.534081 6.336851 1.187600 -37.022582 -1.561177 2.195469 -6.131482 6.889116 -27.594228 -2.412876 -53.803623 -39.205491 34.100116 -4.798052 11.035207 38.570178 19.028523 -53.818473 -25.790921 -103.446684 66.185481 -91.910031 4.977795 -3.918212 0.022423 0.246640 -0.619427 0.126844 -1.321184 -55.854871 10.818818 97.784750 82.375069 96.641704 -6.624264 -8.872612 0.729390 0.222713 0.501318 0.126647
-277.745291 61.940342 -11.371774 173.339497 -29.204855 -1.133584 -1.216739 13.375241 1.969192 -0.702740 7.645143 1.473404 -0.855868 9.544364 1.838497 -0.689637 7.645959 1.468268 -0.655468 18.648057 -4.755197 0.288592 -1.146372 -8.509599 7.951274 4.017822 -4.836803 -3.066743 -20.244378 -9.462424 21.950189 -59.087904 -10.535665 6.326286 1.177374 -37.032420 -1.577115 2.242167 -6.110475 6.961145 -27.587937 -2.422220 -53.837022 -39.291402 34.115058 -4.784961 11.026550 38.587355 19.026763 -53.813150 -25.791131 -103.455690 66.186021 -91.917484 4.982427 -3.918817 0.018606 0.241909 -0.623099 0.131587 -1.305360 -55.851702 10.809550 97.813678 82.387531 96.673848 -6.618915 -8.873569 0.737603 0.207914 0.498726 0.122329
-277.745699 61.943475 -11.376744 173.351486 -29.212407 -1.136359 -1.228642 13.364994 1.973448 -0.706382 7.658472 1.468171 -0.867918 9.531942 1.842592 -0.702801 7.650895 1.470447 -0.669766 18.594621 -4.761406 0.305920 -1.155131 -8.534248 8.006681 3.988363 -4.866311 -3.102583 -20.147739 -9.457359 21.933584 -59.147207 -10.520934 6.335057 1.181214 -37.041922 -1.584527 2.251754 -6.110277 7.041098 -27.516226 -2.411597 -53.858179 -39.398350 34.126992 -4.780352 11.016274 38.608837 19.013462 -53.804468 -25.790298 -103.478223 66.185625 -91.938702 4.978930 -3.925877 0.019273 0.244295 -0.626576 0.130757 -1.284962 -55.844290 10.791148 97.820651 82.399631 96.689646 -6.621766 -8.877563 0.742820 0.219655 0.498724 0.122970
-277.747438 61.947704 -11.382917 173.360849 -29.222983 -1.130738 -1.239090 13.364843 1.967264 -0.719323 7.631995 1.477887 -0.875296 9.538617 1.834644 -0.700175 7.673980 1.462452 -0.670670 18.581367 -4.764570 0.296776 -1.205844 -8.549946 8.065637 3.909436 -4.890370 -3.152707 -20.004598 -9.444631 21.884411 -59.208793 -10.451659 6.338959 1.182381 -37.105535 -1.624908 2.221783 -6.095411 7.123472 -27.442364 -2.415388 -53.827892 -39.477963 34.108342 -4.784628 11.005848 38.632004 19.005187 -53.783564 -25.804568 -103.485540 66.192219 -91.943811 4.996019 -3.937506 0.021037 0.232524 -0.624290 0.127302 -1.272921 -55.832340 10.770054 97.827710 82.400278 96.696462 -6.621051 -8.872937 0.745436 0.213076 0.488372 0.121673
